<svg xmlns="http://www.w3.org/2000/svg" viewBox="0 0 1212.89 208.23" fill="currentColor" aria-hidden="true" xml:space="preserve">
    <defs>
        <style>
            .logo-bracket {
                fill: var(--logo-bracket-fill);
            }
        </style>
    </defs>
    <g>
        <g>
            <g>
                <path d="M429.75,23.24c12.8,0,22.26,2.38,28.38,7.15,6.12,4.76,9.18,12.01,9.18,21.72,0,5.14-.96,9.46-2.87,12.96-1.92,3.5-4.37,6.35-7.36,8.55-2.99,2.2-6.12,3.95-9.39,5.26l28.03,44.42h-17.38l-24.1-40.5h-17.38v40.5h-15.13V23.24h28.03Zm-.98,12.89h-11.91v34.05h12.61c7.75,0,13.4-1.47,16.96-4.41,3.55-2.94,5.33-7.31,5.33-13.1s-1.87-10.23-5.61-12.75c-3.74-2.52-9.53-3.78-17.38-3.78Z" />
                <path d="M518.03,46.36c9.44,0,16.51,2.08,21.23,6.24,4.72,4.16,7.08,10.67,7.08,19.55v51.15h-10.51l-2.94-10.51h-.56c-3.27,4.11-6.7,7.12-10.3,9.04-3.6,1.91-8.57,2.87-14.92,2.87-6.82,0-12.47-1.84-16.96-5.54-4.48-3.69-6.73-9.46-6.73-17.31s2.89-13.5,8.69-17.52c5.79-4.02,14.71-6.21,26.77-6.59l12.89-.42v-4.2c0-5.51-1.26-9.41-3.78-11.7-2.52-2.29-6.07-3.43-10.65-3.43-3.83,0-7.52,.56-11.07,1.68-3.55,1.12-6.96,2.48-10.23,4.06l-4.76-10.79c3.55-1.87,7.64-3.43,12.26-4.69,4.62-1.26,9.46-1.89,14.5-1.89Zm3.5,40.92c-8.6,.37-14.55,1.8-17.87,4.27-3.32,2.48-4.98,5.96-4.98,10.44,0,3.92,1.17,6.78,3.5,8.55,2.33,1.78,5.37,2.66,9.11,2.66,5.79,0,10.63-1.63,14.5-4.9,3.88-3.27,5.82-8.17,5.82-14.71v-6.59l-10.09,.28Z" />
                <path d="M607.44,46.36c8.78,0,15.51,2.2,20.18,6.59,4.67,4.39,7.01,11.44,7.01,21.16v49.19h-14.71v-47.08c0-11.77-5.19-17.66-15.55-17.66-7.76,0-13.08,2.29-15.98,6.87-2.9,4.58-4.34,11.17-4.34,19.76v38.12h-14.85V47.76h11.77l2.1,10.09h.84c2.43-3.92,5.77-6.82,10.02-8.69,4.25-1.87,8.76-2.8,13.52-2.8Z" />
                <path d="M683.39,124.7c-9.06,0-16.37-3.27-21.93-9.81-5.56-6.54-8.34-16.26-8.34-29.15s2.8-22.79,8.41-29.43c5.61-6.63,12.98-9.95,22.14-9.95,5.7,0,10.37,1.08,14.01,3.22,3.64,2.15,6.59,4.76,8.83,7.85h.84c-.19-1.21-.42-3.08-.7-5.6s-.42-4.76-.42-6.73V16.79h14.85V123.3h-11.63l-2.52-10.09h-.7c-2.15,3.27-5.04,6-8.69,8.2-3.64,2.19-8.36,3.29-14.15,3.29Zm3.5-12.19c7.29,0,12.42-2.03,15.41-6.1,2.99-4.06,4.48-10.16,4.48-18.29v-2.24c0-8.78-1.42-15.53-4.27-20.25-2.85-4.72-8.11-7.08-15.77-7.08-6.07,0-10.65,2.45-13.73,7.36-3.08,4.9-4.62,11.61-4.62,20.11s1.54,15.04,4.62,19.62c3.08,4.58,7.71,6.87,13.87,6.87Z" />
                <path d="M773.63,46.36c9.44,0,16.51,2.08,21.23,6.24,4.72,4.16,7.08,10.67,7.08,19.55v51.15h-10.51l-2.94-10.51h-.56c-3.27,4.11-6.7,7.12-10.3,9.04-3.6,1.91-8.57,2.87-14.92,2.87-6.82,0-12.47-1.84-16.96-5.54-4.48-3.69-6.73-9.46-6.73-17.31s2.9-13.5,8.69-17.52c5.79-4.02,14.71-6.21,26.77-6.59l12.89-.42v-4.2c0-5.51-1.26-9.41-3.78-11.7-2.52-2.29-6.07-3.43-10.65-3.43-3.83,0-7.52,.56-11.07,1.68-3.55,1.12-6.96,2.48-10.23,4.06l-4.76-10.79c3.55-1.87,7.64-3.43,12.26-4.69,4.62-1.26,9.46-1.89,14.5-1.89Zm3.5,40.92c-8.6,.37-14.55,1.8-17.87,4.27-3.32,2.48-4.97,5.96-4.97,10.44,0,3.92,1.17,6.78,3.5,8.55,2.33,1.78,5.37,2.66,9.11,2.66,5.79,0,10.63-1.63,14.5-4.9,3.88-3.27,5.82-8.17,5.82-14.71v-6.59l-10.09,.28Z" />
                <path d="M839.64,123.3h-14.85V16.79h14.85V123.3Z" />
                <path d="M877.75,123.3h-14.85V16.79h14.85V123.3Z" />
                <path d="M1056.42,23.24l-26.35,100.06h-16.12l-17.66-61.8c-.65-2.24-1.33-4.76-2.03-7.57-.7-2.8-1.33-5.44-1.89-7.92-.56-2.47-.93-4.23-1.12-5.25-.09,1.03-.37,2.76-.84,5.19-.47,2.43-1.05,5.09-1.75,7.99-.7,2.9-1.38,5.56-2.03,7.99l-17.38,61.38h-16.12l-26.21-100.06h15.55l14.71,59.14c1.03,4.02,1.96,8.25,2.8,12.68,.84,4.44,1.49,8.39,1.96,11.84,.47-3.55,1.17-7.61,2.1-12.19,.93-4.58,1.96-8.69,3.08-12.33l16.68-59.14h15.13l17.24,59.42c1.12,3.74,2.15,7.92,3.08,12.54,.93,4.62,1.63,8.53,2.1,11.7,.47-3.36,1.14-7.29,2.03-11.77,.89-4.48,1.84-8.73,2.87-12.75l14.71-59.14h15.42Z" />
                <path d="M1076.88,19.04c2.24,0,4.2,.65,5.89,1.96,1.68,1.31,2.52,3.5,2.52,6.59s-.84,5.16-2.52,6.52c-1.68,1.36-3.64,2.03-5.89,2.03-2.43,0-4.46-.68-6.1-2.03-1.64-1.35-2.45-3.53-2.45-6.52s.82-5.28,2.45-6.59c1.63-1.31,3.67-1.96,6.1-1.96Zm7.29,28.73V123.3h-14.85V47.76h14.85Z" />
                <path d="M1122.28,123.3h-14.85V16.79h14.85V123.3Z" />
                <path d="M1160.25,70.04c0,1.87-.09,4.11-.28,6.73-.19,2.62-.33,4.95-.42,7.01h.42c1.03-1.4,2.45-3.24,4.27-5.54,1.82-2.29,3.43-4.18,4.83-5.68l23.12-24.8h17.24l-30.41,32.37,32.37,43.16h-17.52l-24.94-33.77-8.69,7.29v26.49h-14.71V16.79h14.71v53.25Z" />
            </g>
            <g>
                <path d="M801,169.85c-.48-1.45-.9-2.83-1.25-4.15s-.66-2.53-.92-3.63h-.2c-.26,1.1-.57,2.32-.92,3.66-.35,1.34-.77,2.74-1.25,4.19l-7.39,22.75h-4.02l-9.89-35.08h3.96l5.87,21.63c.53,1.98,.97,3.7,1.32,5.18,.35,1.47,.64,2.78,.86,3.92h.2c.22-1.05,.52-2.31,.89-3.76,.37-1.45,.85-3.05,1.42-4.81l7.25-22.16h3.82l6.99,22.16c.48,1.58,.93,3.12,1.35,4.62,.42,1.5,.74,2.79,.96,3.89h.2c.13-1.06,.37-2.33,.73-3.83,.35-1.49,.79-3.23,1.32-5.21l5.74-21.63h3.82l-9.56,35.08h-4.09l-7.19-22.82Z" />
                <path d="M841.88,156.93c2.99,0,5.48,.69,7.49,2.08,2,1.38,3.52,3.29,4.55,5.7,1.03,2.42,1.55,5.19,1.55,8.31v2.57h-25.06c0,4.66,1.09,8.23,3.26,10.72,2.18,2.48,5.29,3.73,9.33,3.73,2.15,0,4.04-.19,5.67-.56,1.63-.37,3.41-.98,5.34-1.81v3.43c-1.76,.79-3.5,1.36-5.21,1.71-1.71,.35-3.69,.53-5.94,.53-5.28,0-9.32-1.6-12.13-4.81-2.81-3.21-4.22-7.58-4.22-13.12,0-3.56,.6-6.73,1.81-9.5,1.21-2.77,2.96-4.96,5.24-6.56,2.29-1.6,5.05-2.41,8.31-2.41Zm-.07,3.17c-3.21,0-5.81,1.08-7.81,3.23-2,2.15-3.16,5.21-3.46,9.17h21.04c0-3.69-.8-6.68-2.41-8.97-1.61-2.29-4.06-3.43-7.35-3.43Z" />
                <path d="M868.66,156.4c0,1.28-.02,2.63-.07,4.05-.04,1.43-.09,2.58-.13,3.46h.2c.88-1.98,2.33-3.64,4.35-4.98,2.02-1.34,4.55-2.01,7.58-2.01,4.48,0,7.99,1.53,10.52,4.58s3.79,7.57,3.79,13.55c0,5.54-1.26,9.97-3.79,13.29-2.53,3.32-6.21,4.98-11.05,4.98-2.95,0-5.35-.6-7.22-1.81-1.87-1.21-3.24-2.71-4.12-4.52h-.26l-.72,5.67h-2.84v-50.12h3.76v13.85Zm11.47,3.76c-4.09,0-7.02,1.28-8.8,3.82-1.78,2.55-2.67,6.24-2.67,11.08v.46c0,4.75,.85,8.36,2.54,10.85,1.69,2.48,4.52,3.73,8.47,3.73,3.74,0,6.56-1.31,8.47-3.92,1.91-2.61,2.87-6.34,2.87-11.18,0-9.89-3.63-14.84-10.88-14.84Z" />
                <path d="M934.2,193.33c-4.7,0-8.32-1.5-10.85-4.52-2.53-3.01-3.79-7.46-3.79-13.35s1.32-10.62,3.96-13.78c2.64-3.17,6.31-4.75,11.01-4.75,2.95,0,5.33,.65,7.16,1.95,1.82,1.3,3.2,2.87,4.12,4.71h.26c-.04-1.01-.1-2.14-.16-3.4-.07-1.25-.1-2.41-.1-3.46v-14.18h3.76v50.12h-3.03l-.53-6.13h-.2c-.92,1.89-2.31,3.5-4.15,4.81-1.85,1.32-4.33,1.98-7.45,1.98Zm.46-3.23c4.04,0,6.92-1.23,8.64-3.69,1.71-2.46,2.57-6.02,2.57-10.68v-.59c0-4.84-.85-8.54-2.54-11.11-1.69-2.57-4.5-3.86-8.41-3.86s-6.64,1.33-8.57,3.99c-1.94,2.66-2.9,6.45-2.9,11.38s.92,8.36,2.77,10.85c1.85,2.48,4.66,3.73,8.44,3.73Z" />
                <path d="M974.43,156.93c2.99,0,5.48,.69,7.49,2.08,2,1.38,3.52,3.29,4.55,5.7,1.03,2.42,1.55,5.19,1.55,8.31v2.57h-25.06c0,4.66,1.09,8.23,3.26,10.72,2.18,2.48,5.29,3.73,9.33,3.73,2.15,0,4.04-.19,5.67-.56,1.63-.37,3.41-.98,5.34-1.81v3.43c-1.76,.79-3.5,1.36-5.21,1.71-1.71,.35-3.69,.53-5.94,.53-5.28,0-9.32-1.6-12.13-4.81-2.81-3.21-4.22-7.58-4.22-13.12,0-3.56,.6-6.73,1.81-9.5,1.21-2.77,2.96-4.96,5.24-6.56,2.29-1.6,5.05-2.41,8.31-2.41Zm-.07,3.17c-3.21,0-5.81,1.08-7.81,3.23-2,2.15-3.16,5.21-3.46,9.17h21.04c0-3.69-.8-6.68-2.41-8.97-1.61-2.29-4.06-3.43-7.35-3.43Z" />
                <path d="M1003.84,192.67l-13.45-35.08h4.02l8.71,23.28c.53,1.45,1.02,2.88,1.48,4.29,.46,1.41,.85,2.66,1.15,3.76h.2c.31-1.1,.7-2.36,1.19-3.79,.48-1.43,.99-2.85,1.52-4.25l8.71-23.28h3.96l-13.45,35.08h-4.02Z" />
                <path d="M1040.44,156.93c2.99,0,5.48,.69,7.49,2.08,2,1.38,3.52,3.29,4.55,5.7,1.03,2.42,1.55,5.19,1.55,8.31v2.57h-25.06c0,4.66,1.09,8.23,3.26,10.72,2.18,2.48,5.29,3.73,9.33,3.73,2.15,0,4.04-.19,5.67-.56,1.63-.37,3.41-.98,5.34-1.81v3.43c-1.76,.79-3.5,1.36-5.21,1.71-1.71,.35-3.69,.53-5.94,.53-5.28,0-9.32-1.6-12.13-4.81-2.81-3.21-4.22-7.58-4.22-13.12,0-3.56,.6-6.73,1.81-9.5,1.21-2.77,2.96-4.96,5.24-6.56,2.29-1.6,5.05-2.41,8.31-2.41Zm-.07,3.17c-3.21,0-5.81,1.08-7.81,3.23-2,2.15-3.16,5.21-3.46,9.17h21.04c0-3.69-.8-6.68-2.41-8.97-1.61-2.29-4.06-3.43-7.35-3.43Z" />
                <path d="M1067.28,192.67h-3.76v-50.12h3.76v50.12Z" />
                <path d="M1108.23,175.06c0,3.69-.61,6.9-1.81,9.63-1.21,2.73-2.99,4.85-5.34,6.36-2.35,1.52-5.22,2.27-8.61,2.27s-6.04-.75-8.38-2.24c-2.33-1.49-4.12-3.62-5.37-6.36-1.25-2.75-1.88-5.97-1.88-9.66,0-5.67,1.41-10.11,4.22-13.32,2.81-3.21,6.7-4.81,11.67-4.81,3.34,0,6.17,.76,8.47,2.27,2.31,1.52,4.06,3.64,5.24,6.36,1.19,2.73,1.78,5.89,1.78,9.5Zm-27.5,0c0,4.53,.96,8.17,2.87,10.91,1.91,2.75,4.89,4.12,8.94,4.12s7.08-1.38,8.97-4.15c1.89-2.77,2.83-6.4,2.83-10.88,0-2.9-.4-5.47-1.19-7.72s-2.04-4-3.76-5.28c-1.71-1.27-3.96-1.91-6.73-1.91-3.96,0-6.94,1.32-8.94,3.96-2,2.64-3,6.29-3,10.95Z" />
                <path d="M1133.56,156.93c4.48,0,7.98,1.52,10.49,4.55s3.76,7.52,3.76,13.45-1.31,10.49-3.92,13.65c-2.62,3.17-6.19,4.75-10.72,4.75-3.08,0-5.56-.66-7.45-1.98-1.89-1.32-3.28-2.9-4.15-4.75h-.26c.09,1.1,.15,2.3,.2,3.59,.04,1.3,.07,2.49,.07,3.59v14.44h-3.76v-50.65h3.1l.46,6.53h.2c.88-1.89,2.29-3.56,4.22-5.01,1.93-1.45,4.53-2.18,7.78-2.18Zm-.53,3.23c-3.91,0-6.79,1.23-8.64,3.69-1.85,2.46-2.79,6-2.83,10.62v.66c0,5.01,.91,8.76,2.74,11.24,1.82,2.48,4.65,3.73,8.47,3.73,3.6,0,6.36-1.35,8.28-4.06,1.91-2.7,2.87-6.43,2.87-11.18s-.91-8.33-2.74-10.88c-1.82-2.55-4.54-3.82-8.14-3.82Z" />
                <path d="M1170.62,156.93c2.99,0,5.48,.69,7.49,2.08,2,1.38,3.52,3.29,4.55,5.7,1.03,2.42,1.55,5.19,1.55,8.31v2.57h-25.06c0,4.66,1.09,8.23,3.26,10.72,2.18,2.48,5.29,3.73,9.33,3.73,2.15,0,4.04-.19,5.67-.56,1.63-.37,3.41-.98,5.34-1.81v3.43c-1.76,.79-3.5,1.36-5.21,1.71-1.71,.35-3.69,.53-5.94,.53-5.28,0-9.32-1.6-12.13-4.81-2.81-3.21-4.22-7.58-4.22-13.12,0-3.56,.6-6.73,1.81-9.5,1.21-2.77,2.96-4.96,5.24-6.56,2.29-1.6,5.05-2.41,8.31-2.41Zm-.07,3.17c-3.21,0-5.81,1.08-7.81,3.23-2,2.15-3.16,5.21-3.46,9.17h21.04c0-3.69-.8-6.68-2.41-8.97-1.61-2.29-4.06-3.43-7.35-3.43Z" />
                <path d="M1208.14,156.99c1.71,0,3.3,.18,4.75,.53l-.59,3.5c-1.41-.4-2.86-.59-4.35-.59-3.21,0-5.76,1.19-7.65,3.56-1.89,2.37-2.83,5.52-2.83,9.43v19.26h-3.76v-35.08h3.17l.4,6.53h.2c.88-1.98,2.22-3.66,4.02-5.04,1.8-1.38,4.02-2.08,6.66-2.08Z" />
            </g>
            <g>
                <path class="logo-bracket" d="M59.3,155.74c-13.69,0-23.31-2.08-28.84-6.25-5.54-4.17-8.31-10.72-8.31-19.65v-26.97c0-5.83-1.91-9.97-5.72-12.41-3.81-2.44-9.29-3.66-16.43-3.66v-17.86c7.14,0,12.62-1.22,16.43-3.66,3.81-2.44,5.72-6.52,5.72-12.23V25.72c0-8.93,2.83-15.45,8.48-19.56C36.28,2.05,45.84,0,59.3,0V17.15c-5.24,.12-9.38,1.16-12.41,3.13-3.04,1.96-4.55,5.57-4.55,10.81v25.9c0,11.43-6.67,18.22-20,20.36v1.07c13.33,2.03,20,8.75,20,20.18v26.08c0,5.36,1.49,9.02,4.46,10.98,2.98,1.96,7.14,2.95,12.5,2.95v17.15Z" />
                <path d="M131.09,28.93c1.55,0,3.24,.06,5.09,.18,1.84,.12,3.42,.36,4.73,.71l-1.96,20.9c-1.19-.24-2.62-.45-4.29-.63-1.67-.18-3.16-.27-4.46-.27-4.76,0-9.23,.98-13.4,2.95-4.17,1.96-7.53,5-10.09,9.11-2.56,4.11-3.84,9.26-3.84,15.45v50.19h-22.5V30.72h17.32l3.21,16.79h1.07c2.86-5.12,6.79-9.49,11.79-13.13,5-3.63,10.77-5.45,17.32-5.45Z" />
                <path d="M227.36,85.91c-.6-2.26-1.31-5.09-2.14-8.48-.83-3.39-1.7-6.93-2.59-10.63-.89-3.69-1.7-7.08-2.41-10.18-.71-3.09-1.25-5.48-1.61-7.14h-.71c-.36,1.67-.89,4.05-1.61,7.14-.71,3.1-1.49,6.52-2.32,10.27-.83,3.75-1.7,7.32-2.59,10.72-.89,3.39-1.64,6.22-2.23,8.48l-11.25,41.44h-24.65l-27.15-96.98h22.68l11.97,46.26c.83,3.21,1.64,6.76,2.41,10.63,.77,3.87,1.43,7.62,1.96,11.25,.54,3.63,.98,6.58,1.34,8.84h.71c.24-2.14,.68-5.06,1.34-8.75,.65-3.69,1.34-7.29,2.05-10.81,.71-3.51,1.31-6.16,1.79-7.95l13.93-49.47h24.65l13.4,49.47c.47,2.14,1.1,4.94,1.88,8.39,.77,3.45,1.46,6.94,2.05,10.45,.59,3.51,.95,6.34,1.07,8.48h.71c.24-1.9,.65-4.64,1.25-8.22,.59-3.57,1.31-7.38,2.14-11.43,.83-4.05,1.72-7.68,2.68-10.9l12.15-46.26h22.33l-27.5,96.98h-25l-10.72-41.61Z" />
                <path class="logo-bracket" d="M299.15,138.6c5.24-.12,9.38-1.16,12.41-3.12,3.04-1.96,4.55-5.57,4.55-10.81v-26.08c0-11.31,6.67-18.04,20-20.18v-1.07c-13.34-2.14-20-8.87-20-20.18V31.08c0-5.36-1.52-9.02-4.55-10.98-3.04-1.96-7.17-2.95-12.41-2.95V0c13.69,0,23.31,2.08,28.84,6.25,5.54,4.17,8.31,10.72,8.31,19.65v26.97c0,5.84,1.9,9.97,5.71,12.41,3.81,2.44,9.29,3.66,16.43,3.66v17.86c-7.14,.12-12.62,1.37-16.43,3.75-3.81,2.38-5.71,6.49-5.71,12.32v27.15c0,8.93-2.83,15.45-8.48,19.56-5.66,4.11-15.21,6.16-28.67,6.16v-17.15Z" />
            </g>
        </g>
    </g>
</svg>
