<svg xmlns="http://www.w3.org/2000/svg" viewBox="0 0 477.39 207.45" fill="currentColor" aria-hidden="true" xml:space="preserve">
    <defs>
        <style>
            .logo-bracket {
                fill: var(--logo-bracket-fill);
            }
        </style>
    </defs>
    <g>
        <g>
            <path class="logo-bracket"
                  d="M78.98,207.42c-18.23,0-31.05-2.77-38.41-8.32-7.38-5.55-11.07-14.28-11.07-26.17v-35.92c0-7.76-2.54-13.28-7.62-16.53-5.07-3.25-12.37-4.87-21.88-4.87v-23.79c9.51,0,16.81-1.62,21.88-4.87,5.07-3.25,7.62-8.68,7.62-16.29V34.25c0-11.89,3.77-20.58,11.29-26.05C48.32,2.73,61.05,0,78.98,0V22.84c-6.98,.16-12.49,1.54-16.53,4.17-4.05,2.61-6.06,7.42-6.06,14.4v34.49c0,15.22-8.88,24.27-26.64,27.12v1.43c17.75,2.7,26.64,11.65,26.64,26.88v34.73c0,7.14,1.98,12.01,5.94,14.62,3.97,2.61,9.51,3.93,16.65,3.93v22.81Z"
            />
            <path
                d="M174.59,38.53c2.06,0,4.32,.08,6.78,.24,2.45,.16,4.55,.48,6.3,.95l-2.61,27.84c-1.58-.32-3.49-.6-5.71-.84s-4.21-.36-5.94-.36c-6.34,0-12.29,1.31-17.85,3.93-5.55,2.61-10.03,6.66-13.44,12.13-3.41,5.47-5.11,12.33-5.11,20.58v66.85h-29.97V40.91h23.07l4.28,22.36h1.43c3.81-6.82,9.04-12.64,15.7-17.49,6.66-4.83,14.34-7.26,23.07-7.26h.01Z"
            />
            <path
                d="M302.81,114.42c-.8-3.01-1.74-6.78-2.85-11.29-1.11-4.51-2.26-9.23-3.45-14.16-1.19-4.91-2.26-9.43-3.21-13.56-.95-4.12-1.66-7.3-2.14-9.51h-.95c-.48,2.22-1.19,5.39-2.14,9.51-.95,4.13-1.98,8.68-3.09,13.68-1.11,4.99-2.26,9.75-3.45,14.28-1.19,4.51-2.18,8.28-2.97,11.29l-14.98,55.19h-32.83L194.58,40.69h30.21l15.94,61.61c1.11,4.28,2.18,9,3.21,14.16,1.03,5.15,1.9,10.15,2.61,14.98,.72,4.83,1.31,8.76,1.78,11.77h.95c.32-2.85,.91-6.74,1.78-11.65,.87-4.91,1.78-9.71,2.73-14.4,.95-4.67,1.74-8.2,2.38-10.59l18.55-65.89h32.83l17.85,65.89c.63,2.85,1.47,6.58,2.5,11.17,1.03,4.59,1.94,9.24,2.73,13.92,.79,4.67,1.27,8.44,1.43,11.29h.95c.32-2.53,.87-6.18,1.66-10.95,.79-4.75,1.74-9.83,2.85-15.22s2.29-10.23,3.57-14.52l16.18-61.61h29.74l-36.63,129.16h-33.3l-14.28-55.42h-.01Z"
            />
            <path class="logo-bracket"
                  d="M398.42,184.59c6.98-.16,12.49-1.54,16.53-4.16,4.05-2.61,6.06-7.42,6.06-14.4v-34.73c0-15.06,8.88-24.03,26.64-26.88v-1.43c-17.77-2.85-26.64-11.81-26.64-26.88V41.39c0-7.14-2.02-12.01-6.06-14.62-4.05-2.61-9.55-3.93-16.53-3.93V0c18.23,0,31.05,2.77,38.41,8.32,7.38,5.55,11.07,14.28,11.07,26.17v35.92c0,7.78,2.53,13.28,7.6,16.53,5.07,3.25,12.37,4.87,21.88,4.87v23.79c-9.51,.16-16.81,1.82-21.88,4.99s-7.6,8.64-7.6,16.41v36.16c0,11.89-3.77,20.58-11.29,26.05-7.54,5.47-20.26,8.2-38.18,8.2v-22.84h0Z"
            />
        </g>
    </g>
</svg>
