<svg xmlns="http://www.w3.org/2000/svg" viewBox="0 0 1160 200.6" fill="currentColor" aria-hidden="true">
    <g>
        <g>
            <g>
                <path d="M398.7,20.4c12.4,0,21.6,2.4,27.5,7.1s8.9,11.8,8.9,21.4c0,5.3-1,9.8-2.9,13.3-2,3.6-4.5,6.4-7.5,8.5s-6.2,3.8-9.6,5l27.5,44.8h-14.7l-24.3-41.4h-19.9v41.3h-12.6V20.4h27.6Zm-.7,10.9h-14.3v37.1h15c8.1,0,14.1-1.6,17.8-4.8,3.7-3.2,5.6-8,5.6-14.2s-2-11.2-5.9-13.9c-3.9-2.8-10-4.2-18.2-4.2Z" />
                <path d="M485,44.1c9.2,0,15.9,2,20.3,6,4.4,4,6.6,10.4,6.6,19.2v51.1h-9l-2.4-10.7h-.6c-3.3,4.1-6.7,7.1-10.3,9.1s-8.6,2.9-14.9,2.9c-6.8,0-12.5-1.8-17-5.4s-6.7-9.2-6.7-16.9,2.9-13.2,8.8-17.3c5.9-4.1,14.9-6.3,27.2-6.7l12.8-.4v-4.5c0-6.3-1.4-10.6-4.1-13-2.7-2.4-6.5-3.6-11.5-3.6-3.9,0-7.7,.6-11.2,1.8-3.6,1.2-6.9,2.5-9.9,4l-3.8-9.2c3.3-1.8,7.1-3.3,11.6-4.6s9.2-1.8,14.1-1.8Zm3.6,40.1c-9.3,.4-15.8,1.9-19.4,4.5-3.6,2.6-5.4,6.3-5.4,11.1,0,4.2,1.3,7.3,3.9,9.2,2.6,2,5.9,2.9,9.9,2.9,6.4,0,11.6-1.8,15.8-5.3s6.3-8.9,6.3-16.2v-6.7l-11.1,.5Z" />
                <path d="M571.3,43.9c9,0,15.7,2.2,20.3,6.5s6.9,11.4,6.9,21.1v48.9h-12.2v-48c0-12.1-5.6-18.1-16.8-18.1-8.3,0-14.1,2.3-17.2,7-3.2,4.7-4.8,11.4-4.8,20.2v39h-12.3V45.4h9.9l1.8,10.2h.7c2.4-3.9,5.8-6.8,10.1-8.8,4.3-1.9,8.9-2.9,13.6-2.9Z" />
                <path d="M648.4,121.9c-9.3,0-16.8-3.2-22.4-9.7-5.6-6.5-8.4-16.2-8.4-29.1s2.8-22.6,8.5-29.2,13.1-9.9,22.5-9.9c5.8,0,10.5,1.1,14.2,3.2s6.7,4.8,9,7.8h.8c-.1-1.2-.3-3-.5-5.4s-.4-4.3-.4-5.7V13.9h12.3V120.4h-10l-1.8-10.1h-.6c-2.2,3.2-5.2,5.9-9,8.1-3.5,2.3-8.3,3.5-14.2,3.5Zm2-10.3c7.9,0,13.5-2.2,16.7-6.5s4.8-10.9,4.8-19.7v-2.2c0-9.3-1.5-16.5-4.6-21.5s-8.8-7.5-17.1-7.5c-6.6,0-11.6,2.6-14.9,7.9-3.3,5.3-5,12.4-5,21.2s1.7,15.9,5,20.9,8.3,7.4,15.1,7.4Z" />
                <path d="M736.4,44.1c9.2,0,15.9,2,20.3,6,4.4,4,6.6,10.4,6.6,19.2v51.1h-9l-2.4-10.7h-.6c-3.3,4.1-6.7,7.1-10.3,9.1s-8.6,2.9-14.9,2.9c-6.8,0-12.5-1.8-17-5.4s-6.7-9.2-6.7-16.9,2.9-13.2,8.8-17.3,14.9-6.3,27.2-6.7l12.8-.4v-4.5c0-6.3-1.4-10.6-4.1-13-2.7-2.4-6.5-3.6-11.5-3.6-3.9,0-7.7,.6-11.2,1.8-3.6,1.2-6.9,2.5-9.9,4l-3.8-9.2c3.3-1.8,7.1-3.3,11.6-4.6,4.6-1.2,9.2-1.8,14.1-1.8Zm3.6,40.1c-9.3,.4-15.8,1.9-19.4,4.5-3.6,2.6-5.4,6.3-5.4,11.1,0,4.2,1.3,7.3,3.9,9.2,2.6,2,5.9,2.9,9.9,2.9,6.4,0,11.6-1.8,15.8-5.3s6.3-8.9,6.3-16.2v-6.7l-11.1,.5Z" />
                <path d="M798.9,120.5h-12.3V14h12.3V120.5Z" />
                <path d="M835.1,120.5h-12.3V14h12.3V120.5Z" />
                <path d="M1011.9,20.4l-26.6,100.1h-12.8l-19.5-65.6c-.7-2.7-1.5-5.4-2.2-8.1s-1.4-5.1-1.8-7.2c-.5-2.1-.8-3.6-1-4.4-.1,1.2-.6,3.8-1.5,7.8s-2,8.1-3.3,12.4l-18.9,65.2h-12.7l-26.5-100.2h13.2l15.6,61.1c1.1,4.3,2.1,8.5,2.9,12.5s1.4,7.8,1.9,11.4c.5-3.6,1.2-7.6,2.1-11.9s2-8.5,3.2-12.6l17.6-60.5h13l18.4,60.8c1.3,4.3,2.4,8.6,3.4,12.8,.9,4.3,1.6,8,2.1,11.3,.5-3.5,1.1-7.2,2-11.3,.8-4.1,1.8-8.3,2.9-12.7l15.4-61h13.1v.1Z" />
                <path d="M1031.9,17.2c1.9,0,3.5,.6,5,1.9,1.4,1.3,2.2,3.2,2.2,6,0,2.6-.7,4.6-2.2,5.9-1.4,1.3-3.1,2-5,2-2.1,0-3.8-.7-5.2-2-1.4-1.3-2.1-3.3-2.1-5.9s.7-4.7,2.1-6,3.2-1.9,5.2-1.9Zm6.1,28.1V120.4h-12.4V45.3h12.4Z" />
                <path d="M1074.1,120.5h-12.3V14h12.3V120.5Z" />
                <path d="M1110.1,69.6c0,1.5-.1,3.5-.2,5.9s-.3,4.5-.3,6.3h.6c.6-.7,1.4-1.8,2.5-3.2,1.1-1.4,2.3-2.8,3.4-4.3,1.2-1.4,2.2-2.6,3-3.6l24-25.4h14.4l-30.4,32.1,32.5,43h-14.9l-26.1-35-8.5,7.4v27.6h-12.2V14h12.2v55.6Z" />
            </g>
            <g>
                <path d="M733.7,164.8c-.6-1.8-1.1-3.6-1.5-5.3-.4-1.7-.7-3.1-1-4.1h-.3c-.2,1-.5,2.3-.9,4.1-.4,1.7-.9,3.5-1.5,5.4l-6.3,19.8h-6.6l-9.7-35.3h6l4.9,18.9c.5,1.9,.9,3.8,1.4,5.7,.4,1.9,.7,3.5,.9,4.8h.3c.2-.7,.4-1.7,.6-2.8,.2-1.1,.5-2.3,.8-3.5s.6-2.3,.9-3.3l6.3-19.9h6.3l6.1,19.9c.5,1.5,1,3.1,1.4,4.9,.5,1.8,.8,3.3,1,4.5h.3c.1-1.1,.4-2.6,.9-4.5s1-3.9,1.5-5.9l4.9-18.9h5.9l-9.8,35.3h-6.8l-6-19.8Z" />
                <path d="M776.4,148.8c3,0,5.6,.7,7.8,2s3.8,3.2,5,5.6,1.7,5.2,1.7,8.4v3.5h-24.2c.1,4,1.1,7,3.1,9.1s4.7,3.1,8.2,3.1c2.2,0,4.2-.2,6-.6,1.7-.4,3.5-1,5.4-1.8v5.1c-1.8,.8-3.6,1.4-5.3,1.7s-3.8,.6-6.3,.6c-3.3,0-6.3-.7-8.9-2-2.6-1.4-4.6-3.4-6-6.1s-2.1-6-2.1-9.9,.6-7.2,1.9-10c1.3-2.8,3.1-4.9,5.5-6.4,2.3-1.5,5.1-2.3,8.2-2.3Zm-.1,4.8c-2.8,0-5,.9-6.6,2.7-1.6,1.8-2.6,4.3-2.9,7.4h18c0-3-.7-5.4-2.1-7.3-1.3-1.9-3.4-2.8-6.4-2.8Z" />
                <path d="M805.7,146.9c0,1.5,0,2.9-.1,4.2-.1,1.3-.1,2.3-.2,3.1h.3c1-1.5,2.4-2.7,4.2-3.8,1.8-1,4-1.5,6.8-1.5,4.4,0,7.9,1.5,10.6,4.6,2.7,3.1,4,7.6,4,13.7s-1.3,10.6-4,13.7-6.2,4.6-10.6,4.6c-2.8,0-5-.5-6.8-1.5s-3.1-2.2-4.2-3.6h-.5l-1.2,4.5h-4.2v-50.1h5.8v12.1h.1Zm10,6.8c-3.7,0-6.3,1.1-7.8,3.2-1.5,2.2-2.2,5.5-2.2,10v.3c0,4.4,.7,7.7,2.1,10,1.4,2.3,4.1,3.5,7.9,3.5,3.2,0,5.5-1.2,7.1-3.5s2.3-5.7,2.3-10.1c.2-8.9-3-13.4-9.4-13.4Z" />
                <path d="M870.2,185.5c-4.4,0-7.9-1.5-10.6-4.6-2.6-3.1-4-7.6-4-13.7s1.3-10.7,4-13.8c2.7-3.1,6.2-4.6,10.6-4.6,2.7,0,5,.5,6.7,1.5s3.2,2.2,4.3,3.7h.4c0-.6-.1-1.4-.2-2.5s-.2-2-.2-2.7v-14.1h5.8v50.1h-4.7l-.9-4.7h-.3c-1.1,1.5-2.5,2.8-4.2,3.8-1.7,1-4,1.6-6.7,1.6Zm.9-4.8c3.7,0,6.4-1,7.9-3.1,1.5-2,2.3-5.1,2.3-9.3v-1.1c0-4.4-.7-7.8-2.2-10.1-1.5-2.4-4.1-3.5-8-3.5-3.1,0-5.5,1.2-7,3.7s-2.3,5.8-2.3,10,.8,7.5,2.3,9.8,3.8,3.6,7,3.6Z" />
                <path d="M911.8,148.8c3,0,5.6,.7,7.8,2,2.2,1.3,3.8,3.2,5,5.6s1.7,5.2,1.7,8.4v3.5h-24.2c.1,4,1.1,7,3.1,9.1s4.7,3.1,8.2,3.1c2.2,0,4.2-.2,6-.6,1.7-.4,3.5-1,5.4-1.8v5.1c-1.8,.8-3.6,1.4-5.3,1.7s-3.8,.6-6.3,.6c-3.3,0-6.3-.7-8.9-2-2.6-1.4-4.6-3.4-6-6.1s-2.1-6-2.1-9.9,.6-7.2,1.9-10,3.1-4.9,5.5-6.4c2.4-1.5,5.1-2.3,8.2-2.3Zm0,4.8c-2.8,0-5,.9-6.6,2.7-1.6,1.8-2.6,4.3-2.9,7.4h18c0-3-.7-5.4-2.1-7.3-1.3-1.9-3.5-2.8-6.4-2.8Z" />
                <path d="M941.8,184.8l-13.4-35.3h6.2l7.5,20.8c.4,1,.7,2,1.1,3.2s.7,2.3,1.1,3.4c.3,1.1,.5,2,.7,2.7h.3c.2-.7,.4-1.7,.8-2.8,.3-1.1,.7-2.2,1.1-3.4,.4-1.2,.8-2.2,1.1-3.2l7.5-20.8h6.2l-13.5,35.3h-6.7v.1Z" />
                <path d="M981.2,148.8c3,0,5.6,.7,7.8,2,2.2,1.3,3.8,3.2,5,5.6s1.7,5.2,1.7,8.4v3.5h-24.1c.1,4,1.1,7,3.1,9.1s4.7,3.1,8.2,3.1c2.2,0,4.2-.2,6-.6,1.7-.4,3.5-1,5.4-1.8v5.1c-1.8,.8-3.6,1.4-5.3,1.7s-3.8,.6-6.3,.6c-3.3,0-6.3-.7-8.9-2-2.6-1.4-4.6-3.4-6-6.1s-2.1-6-2.1-9.9,.6-7.2,1.9-10,3.1-4.9,5.5-6.4c2.3-1.5,5-2.3,8.1-2.3Zm-.1,4.8c-2.8,0-5,.9-6.6,2.7-1.6,1.8-2.6,4.3-2.9,7.4h18c0-3-.7-5.4-2.1-7.3-1.3-1.9-3.4-2.8-6.4-2.8Z" />
                <path d="M1010.6,184.8h-5.8v-50.1h5.8v50.1Z" />
                <path d="M1052.5,167.1c0,5.8-1.5,10.4-4.5,13.6s-7,4.8-12,4.8c-3.1,0-5.9-.7-8.3-2.1s-4.4-3.5-5.8-6.3c-1.4-2.7-2.1-6.1-2.1-10,0-5.8,1.5-10.4,4.4-13.5,2.9-3.2,6.9-4.7,12-4.7,3.2,0,6,.7,8.5,2.1,2.4,1.4,4.4,3.5,5.7,6.2s2.1,6,2.1,9.9Zm-26.7,0c0,4.2,.8,7.5,2.5,9.9,1.6,2.4,4.3,3.7,7.9,3.7s6.2-1.2,7.8-3.7c1.7-2.4,2.5-5.7,2.5-9.9s-.8-7.5-2.5-9.8c-1.7-2.4-4.3-3.6-7.9-3.6s-6.2,1.2-7.8,3.6c-1.7,2.3-2.5,5.6-2.5,9.8Z" />
                <path d="M1078.5,148.8c4.4,0,7.9,1.5,10.5,4.5s4,7.6,4,13.7-1.3,10.6-4,13.7-6.2,4.7-10.6,4.7c-2.7,0-5-.5-6.8-1.5s-3.2-2.2-4.2-3.6h-.4c.1,.7,.2,1.7,.3,2.8,.1,1.1,.1,2.1,.1,3v14.5h-5.8v-51.2h4.7l.8,4.8h.3c1.1-1.5,2.4-2.8,4.2-3.9,1.7-1,4-1.5,6.9-1.5Zm-1.1,4.9c-3.6,0-6.1,1-7.6,3s-2.3,5.1-2.3,9.2v1.1c0,4.4,.7,7.7,2.1,10.1s4.1,3.5,7.9,3.5c2.2,0,3.9-.6,5.3-1.8,1.4-1.2,2.4-2.8,3.1-4.8s1-4.4,1-7c0-4-.8-7.3-2.3-9.7s-3.9-3.6-7.2-3.6Z" />
                <path d="M1115.9,148.8c3,0,5.6,.7,7.8,2,2.2,1.3,3.8,3.2,5,5.6s1.7,5.2,1.7,8.4v3.5h-24.2c.1,4,1.1,7,3.1,9.1s4.7,3.1,8.2,3.1c2.2,0,4.2-.2,6-.6,1.7-.4,3.5-1,5.4-1.8v5.1c-1.8,.8-3.6,1.4-5.3,1.7s-3.8,.6-6.3,.6c-3.3,0-6.3-.7-8.9-2-2.6-1.4-4.6-3.4-6-6.1s-2.1-6-2.1-9.9,.6-7.2,1.9-10,3.1-4.9,5.5-6.4c2.3-1.5,5-2.3,8.2-2.3Zm-.1,4.8c-2.8,0-5,.9-6.6,2.7-1.6,1.8-2.6,4.3-2.9,7.4h18c0-3-.7-5.4-2.1-7.3-1.3-1.9-3.5-2.8-6.4-2.8Z" />
                <path d="M1155.9,148.8c.7,0,1.4,0,2.1,.1,.8,.1,1.4,.2,2,.3l-.7,5.3c-.6-.1-1.2-.2-1.9-.3-.7-.1-1.3-.1-1.9-.1-1.8,0-3.5,.5-5.1,1.5s-2.8,2.4-3.8,4.2c-.9,1.8-1.4,3.9-1.4,6.2v18.9h-5.8v-35.3h4.7l.7,6.5h.3c1.1-1.9,2.6-3.6,4.4-5,1.8-1.6,3.9-2.3,6.4-2.3Z" />
            </g>
            <g>
                <path d="M53.6,145.9c-10.3-.1-18.4-2.3-24.3-6.7-5.9-4.4-8.9-11-8.9-19.9v-24.6c0-5.7-1.8-9.7-5.3-12.1s-8.6-3.6-15.1-3.6v-12.2c6.6-.1,11.6-1.3,15.1-3.7,3.5-2.3,5.3-6.3,5.3-11.9V26.4c0-8.9,3.1-15.6,9.2-19.9C35.7,2.1,43.7,0,53.5,0V12c-5.8,.1-10.3,1.4-13.6,3.8-3.3,2.5-4.9,6.4-4.9,11.9v24.1c0,11.5-6.1,18.3-18.2,20.4v1c12.2,2.1,18.2,8.9,18.2,20.4v24.6c0,5.5,1.6,9.4,4.9,11.8,3.2,2.4,7.8,3.7,13.7,3.8v12.1h0Z" />
                <path d="M115,28.1c1.7,0,3.5,.1,5.4,.3,2,.2,3.7,.4,5.1,.8l-1.8,13.6c-1.5-.3-3-.6-4.8-.8-1.7-.2-3.4-.3-4.9-.3-4.6,0-8.9,1.3-12.9,3.8s-7.2,6-9.6,10.5-3.6,9.8-3.6,15.8v47.6h-14.7V29.7h12l1.7,16.4h.7c2.9-4.9,6.6-9.1,11.2-12.7,4.6-3.6,10-5.3,16.2-5.3Z" />
                <path d="M200.2,68.7c-1.5-4.6-2.7-9.1-3.8-13.5-1.1-4.4-1.9-7.8-2.4-10.3h-.7c-.4,2.5-1.2,5.9-2.2,10.3s-2.3,9-3.8,13.6l-16.1,50.4h-16.7l-24.6-89.7h15.2l12.4,47.9c1.2,4.8,2.4,9.7,3.5,14.6s1.9,9,2.3,12.2h.7c.4-1.9,1-4.2,1.6-7s1.3-5.7,2.1-8.8c.8-3.1,1.6-5.8,2.3-8.3l15.9-50.5h16.1l15.4,50.5c1.2,3.8,2.4,7.9,3.6,12.4s2,8.3,2.4,11.5h.7c.3-2.8,1.1-6.6,2.3-11.5,1.2-4.9,2.4-9.9,3.8-15.1l12.6-47.9h15.1l-24.9,89.7h-17.4l-15.4-50.5Z" />
                <path d="M265,133.8c5.8-.2,10.3-1.5,13.6-3.9,3.3-2.4,4.9-6.3,4.9-11.8v-24.3c0-11.5,6.1-18.3,18.2-20.4v-1c-12.2-2.1-18.2-8.9-18.2-20.4V27.6c0-5.5-1.6-9.4-4.9-11.8-3.2-2.4-7.8-3.7-13.7-3.8V0c10.3,.1,18.4,2.3,24.3,6.7,5.9,4.4,8.9,11,8.9,19.9v24.4c0,5.7,1.8,9.7,5.3,12.1s8.6,3.6,15.1,3.6v12.2c-6.6,.1-11.6,1.3-15.1,3.7-3.5,2.3-5.3,6.3-5.3,11.9v24.9c0,8.8-3.1,15.4-9.2,19.8s-14.1,6.6-23.9,6.6v-12h0Z" />
            </g>
        </g>
    </g>
</svg>
